PathFileType	4	(X/Y/Z)	C:/Users/beibeiliu/ov580/test_trc/User2\sequence.3_training_dense_left.trc
DataRate	CameraRate	NumFrames	NumMarkers	Units	OrigDataRate	OrigDataStartFrame	OrigNumFrames
120	120	24	19	mm	120	86	343
Frame#	Time	ThumbCMC			ThumbMCP			ThumbIP			ThumbTip			IndexMCP			IndexPIP			IndexTip			MiddleMCP			MiddlePIP			MiddleTip			RingMCP			RingPIP			RingTip			PinkyMCP			PinkyPIP			PinkyTip			BackHand1			BackHand2			BackHand3	
		X0	Y0	Z0	X1	Y1	Z1	X2	Y2	Z2	X3	Y3	Z3	X4	Y4	Z4	X5	Y5	Z5	X6	Y6	Z6	X7	Y7	Z7	X8	Y8	Z8	X9	Y9	Z9	X10	Y10	Z10	X11	Y11	Z11	X12	Y12	Z12	X13	Y13	Z13	X14	Y14	Z14	X15	Y15	Z15	X16	Y16	Z16	X17	Y17	Z17	X18	Y18	Z18	
85	0.708333	-185.655	17.8271	115.809	-181.173	17.4608	77.6516	-182.431	25.2066	44.0014	-197.173	40.7505	23.418	-170.259	69.6868	55.9667	-176.354	48.9052	35.9737	-188.194	29.3784	65.1143	-189.889	74.1817	48.253	-197.432	41.1018	33.989	-204.685	30.3009	69.2471	-217.314	66.9663	42.0505	-215.189	35.2587	37.3107	-220.96	28.1682	74.5772	-237.249	59.7163	45.3005	-233.37	28.5991	47.9047	-233.817	26.4624	84.2932	-231.909	75.8142	106.657	-237.899	60.5035	135.066	-200.585	56.9749	131.708	
86	0.716667	-190.714	19.2481	115.346	-184.212	17.5342	75.8125	-184.158	23.6458	41.9088	-203.913	44.1025	21.432	-177.004	71.1098	56.1882	-180.23	45.9994	34.3099	-191.871	29.2819	66.3908	-199.782	75.5726	48.0695	-203.379	44.9178	31.6503	-211.053	31.9586	73.0811	-220.618	66.261	43.3096	-223.809	34.1164	38.8676	-225.079	27.0224	71.2574	-239.941	60.2986	49.0919	-235.065	27.8709	51.2233	-238.884	26.18	82.3067	-236.492	73.8804	107.457	-240.302	61.2297	135.763	-202.599	59.081	130.628	
87	0.725	-192.871	19.5576	111.938	-188.633	17.8361	71.6372	-195.918	28.3623	40.0305	-211.954	42.4629	18.8214	-184.506	73.0915	50.7197	-191.189	49.705	31.3049	-198.794	30.379	63.0101	-204.716	75.1808	44.0243	-210.452	43.2791	30.5939	-216.032	31.2037	67.4133	-232.299	67.5182	42.5764	-230.519	36.204	36.5011	-229.664	27.82	73.1389	-248.737	59.8287	50.782	-246.083	25.6739	52.1056	-244.784	26.3529	83.1211	-241.476	76.0544	107.989	-246.971	57.9678	139.195	-207.645	60.0427	128.613	
88	0.733333	-197.107	22.4268	106.336	-197.953	19.0222	69.2231	-205.305	28.8286	31.524	-230.207	43.6291	20.5227	-197.619	74.0398	48.9647	-204.09	46.81	28.4843	-210.796	31.2896	58.0663	-221.769	74.6299	39.6397	-227.35	41.2646	31.1139	-224.776	30.0369	66.4258	-245.827	66.7911	44.6172	-243.393	36.6491	36.4662	-239.831	26.7712	71.4494	-260.022	59.0326	51.9674	-255.708	27.2648	51.8153	-253.815	23.9137	83.5458	-245.746	74.7131	109.586	-250.358	59.4629	138.743	-210.603	61.958	121.735	
89	0.741667	-204.205	23.4936	100.689	-208.23	19.0804	64.006	-223.123	26.8924	30.8783	-244.163	36.4104	17.9659	-212.581	72.1111	41.4116	-221.188	45.3119	24.8528	-218.051	28.5246	56.8874	-236.758	72.3485	36.4384	-239.97	38.0776	29.057	-236.304	29.3273	67.1909	-257.027	63.5536	41.9981	-259.341	31.9959	37.33	-247.589	25.8049	71.252	-276.671	56.8988	55.0783	-268.221	23.5144	55.5223	-257.982	26.4476	86.9735	-255.932	74.2329	107.347	-254.722	59.5517	138.899	-215.926	63.4507	117.796	
90	0.75	-207.767	21.1747	97.124	-219.849	16.1479	60.8194	-237.842	20.5289	25.1899	-263.943	32.8848	20.1642	-228.549	69.5489	37.1854	-237.985	43.074	19.7462	-232.112	27.2909	55.1507	-250.007	68.955	38.0266	-257.228	35.8168	26.9468	-246.057	27.6523	67.4315	-270.01	60.6503	43.7676	-272.074	27.0959	39.0869	-259.04	24.1187	76.9052	-289.306	49.1559	54.4744	-278.754	20.1922	57.3094	-266.864	23.0829	86.5274	-258.284	71.7641	104.651	-258.579	59.7402	135.011	-219.934	63.3038	114.056	
91	0.758333	-213.687	21.2882	93.4555	-226.494	10.5452	57.17	-248.905	11.4999	27.9246	-276.047	21.816	23.0349	-241.038	60.4164	28.5124	-252.64	34.2235	21.1819	-242.48	22.2597	53.9277	-261.51	63.0725	35.8374	-268.296	25.3841	30.7374	-255.126	23.0679	67.8716	-284.864	50.9131	40.4864	-286.205	21.129	43.1856	-269.442	19.4853	76.3416	-297.699	46.5798	61.2371	-290.047	13.3218	64.349	-274.618	20.3453	93.9547	-265.915	71.7272	102.683	-259.419	61.8672	133.614	-229.095	62.5765	107.296	
92	0.766667	-218.866	18.5079	93.317	-234.516	5.99515	61.9679	-259.159	6.20528	30.4226	-286.383	15.3721	29.9219	-251.97	54.1924	31.5617	-263.03	24.0179	23.2106	-252.544	16.5838	54.6827	-276.381	55.5606	36.0089	-281.431	20.0493	33.8554	-259.644	18.0487	69.0648	-295.841	44.5137	45.8514	-293.14	12.8035	49.5859	-272.691	13.7139	77.3471	-307.376	38.9205	63.3456	-296.105	7.89575	68.3096	-277.239	18.9227	95.503	-274.051	68.5448	103.531	-259.204	59.4765	136.082	-235.577	59.7764	108.686	
93	0.775	-222.333	17.4841	94.2347	-238.9	2.63842	60.8328	-262.523	-2.58981	37.9217	-290.942	3.60723	29.208	-255.456	46.808	29.5273	-267.4	15.4989	23.8707	-251.44	10.7945	58.7336	-281.046	44.2561	32.8021	-285.463	11.0187	35.4033	-266.663	12.9842	72.2071	-301.801	34.0353	47.5052	-297.507	6.42906	53.0124	-272.432	11.6545	81.7917	-308.411	32.4599	64.8866	-297.246	2.00516	72.8103	-279.641	16.0499	98.7302	-273.157	67.2356	100.409	-260.084	59.5076	131.487	-235.962	60.253	104.547	
94	0.783333	-222.48	19.2324	97.3463	-234.136	-3.76749	63.2817	-262.576	-9.71748	37.6269	-288.751	-5.1076	36.2692	-258.3	35.5488	27.4153	-269.069	7.0731	29.4445	-252.208	6.0916	60.4893	-281.085	35.2276	32.9088	-281.821	0.388983	40.2345	-264.098	9.22078	77.1708	-300.492	26.1674	49.4108	-294.195	-1.80529	55.9465	-273.114	7.55659	88.5268	-308.254	23.7343	67.4918	-300.762	-5.13448	78.9923	-278.42	9.32778	103.664	-274.736	61.8825	99.5391	-262.732	62.0755	131.387	-239.789	59.6091	102.879	
95	0.791667	-219.014	21.2185	98.6663	-227.113	-5.73951	70.1995	-255.576	-15.0196	45.9394	-282.362	-18.9297	39.8035	-258.91	25.8391	28.7934	-263.369	-3.883	36.4849	-246.675	5.72717	68.6005	-282.923	24.0337	37.1811	-278.494	-8.78783	43.44	-260.374	4.15758	80.9156	-298.716	13.3918	53.9199	-290.132	-12.2085	62.7798	-269.459	-0.360985	90.7196	-308.95	13.6743	73.5267	-289.099	-14.1951	87.4582	-271.913	5.71652	105.393	-280.492	59.3857	97.2237	-263.568	59.4571	130.32	-236.82	60.8618	98.9947	
96	0.8	-214.351	23.7045	98.0448	-222.661	-4.23211	73.3612	-245.648	-25.8376	48.541	-273.761	-28.0055	48.3665	-254.176	17.5735	32.9699	-250.196	-14.4227	40.2421	-237.752	1.6203	72.9398	-277.329	13.3787	43.4023	-269.422	-20.1569	54.7639	-252.001	-2.14946	85.0408	-289.052	0.499546	56.6831	-275.186	-23.926	71.4531	-259.735	-3.89757	96.6251	-298.533	-2.66439	75.9293	-277.241	-21.5081	92.573	-266.353	-0.176517	112.749	-281.222	51.2325	97.8343	-267.953	60.6136	128.368	-237.017	58.7106	99.6222	
97	0.808333	-209.975	27.3193	99.6523	-212.118	-4.71451	77.1239	-232.028	-28.059	59.65	-262.444	-38.5305	54.0851	-248.25	11.7997	35.4175	-239.089	-21.17	47.1467	-227.26	0.329049	75.2928	-272.077	0.789942	48.1546	-254.296	-28.0037	62.1725	-239.626	-2.60709	88.2326	-280.105	-11.5143	63.3082	-264.019	-32.0059	81.0448	-249.462	-6.15105	103.001	-288.62	-13.9301	82.6886	-261.917	-27.1943	99.5244	-254.342	-0.491365	117.89	-277.412	45.0531	96.7622	-265.413	55.8903	131.808	-242.127	57.1582	96.1547	
98	0.816667	-202.441	33.1261	97.6757	-198.933	-2.65403	77.1834	-219.829	-31.4119	59.3309	-244.571	-43.1072	60.9383	-243.667	4.46655	39.4398	-227.801	-23.2305	51.333	-218.554	-1.6464	77.3868	-261.543	-8.22622	50.4661	-241.32	-32.3178	62.9628	-230.604	-0.706724	91.1443	-268.753	-21.3447	69.3895	-249.375	-36.4614	86.1621	-237.318	-7.65549	104.574	-275.028	-22.4909	88.2812	-247.313	-29.0594	104.704	-244.133	0.498129	121.726	-276.238	35.4129	98.2778	-265.209	51.5993	131.833	-238.608	56.9664	98.2371	
99	0.825	-202.819	35.9603	96.4187	-192.942	2.78647	76.9602	-202.465	-28.5182	62.5486	-225.818	-46.9793	63.1726	-234.134	-1.35867	40.0908	-216.584	-24.0058	51.0216	-209.708	1.33784	79.2989	-251.031	-12.5895	52.2147	-224.588	-32.0134	68.395	-220.218	1.50709	92.0552	-254.536	-28.3944	72.2773	-230.381	-35.2735	87.5848	-225.964	-3.45467	104.608	-262.2	-25.7061	89.3981	-234.038	-30.5673	107.17	-234.404	-1.49264	120.336	-273.925	29.7511	100.338	-263.587	47.5931	127.821	-242.235	57.0826	98.4443	
100	0.833333	-198.263	42.6307	100.747	-183.205	9.27172	76.4394	-189.437	-22.349	63.2075	-209.93	-45.4272	61.4418	-224.575	1.78959	39.544	-205.308	-20.026	50.8551	-203.623	6.20513	80.4612	-237.936	-18.261	50.5365	-212.17	-31.0236	67.5549	-210.595	4.27183	90.2885	-242.442	-27.2606	70.6865	-216.259	-32.7969	86.8777	-219.166	1.02609	106.224	-248.679	-32.8626	92.0478	-219.958	-27.378	107.009	-225.454	1.87948	121.081	-269.098	23.2745	98.4927	-259.753	45.3501	129.34	-238.976	54.5334	95.5673	
101	0.841667	-197.54	46.1961	93.7223	-180.824	18.1864	77.8783	-183.296	-14.458	62.249	-198.28	-38.5827	59.8993	-217.461	4.11752	37.0899	-194.66	-13.3108	47.7375	-198.723	12.3572	78.8798	-230.354	-13.2833	49.1875	-200.967	-25.1566	68.2001	-206.983	5.31116	90.2381	-229.376	-27.6317	68.3956	-203.868	-26.9861	89.8971	-212.621	4.12301	103.909	-236.093	-33.3387	89.3023	-209.072	-23.8849	103.716	-219.891	5.13994	120.202	-264.779	20.0436	96.8893	-260.48	37.1318	125.38	-241.535	54.0122	90.7982	
102	0.85	-198.252	52.7349	91.6659	-177.733	25.9861	70.799	-174.865	-5.35091	57.591	-187.789	-32.2278	56.2268	-211.437	6.97377	32.4265	-186.285	-5.11937	45.4848	-192.543	15.7232	73.7678	-222.249	-14.7183	46.43	-189.629	-17.6088	59.6952	-200.093	11.3937	86.0084	-219.939	-26.8757	68.7066	-192.65	-19.5579	84.4371	-207.387	8.25029	102.086	-225.276	-30.1729	85.4285	-197.617	-16.8462	100.389	-212.635	6.96229	117.788	-260.474	13.4246	96.1952	-257.137	35.2275	123.021	-244.62	50.3968	92.0454	
103	0.858333	-202.441	54.2257	92.038	-179.17	35.1494	69.8013	-168.703	4.88565	50.7443	-178.899	-24.7035	48.3855	-212.965	9.88161	30.8442	-183.783	1.02625	41.1173	-190.998	24.4698	68.7487	-217.265	-11.058	42.0425	-184.321	-12.3423	56.4425	-194.213	14.1363	80.1109	-211.465	-23.2802	60.498	-184.709	-16.3704	74.5579	-201.556	10.7779	95.4085	-213.98	-31.1967	79.3088	-188.109	-14.0291	92.2364	-204.162	9.77145	110.493	-254.856	8.26048	94.9588	-255.322	28.6064	122.979	-245.683	46.7207	92.4089	
104	0.866667	-207.324	59.4443	91.0377	-183.643	41.0535	64.5192	-168.698	14.7158	43.6615	-174.938	-17.0886	40.2774	-215.138	13.898	26.6573	-184.214	8.42787	35.3676	-192.942	28.9657	65.2521	-215.274	-9.90379	39.1041	-181.284	-6.33045	46.8812	-196.067	21.2843	74.9203	-203.936	-23.4783	54.5986	-178.825	-13.0362	63.767	-194.268	13.6611	87.5385	-208.873	-29.2085	75.3188	-180.356	-11.7594	82.5822	-193.713	9.02839	104.7	-252.491	1.99163	95.5281	-254.548	21.876	129.109	-246.643	46.2275	93.3882	
105	0.875	-214.75	59.6738	86.2123	-188.494	49.3057	60.7125	-175.477	22.4998	39.6616	-170.633	-1.62657	34.9967	-219.891	18.1572	23.3549	-189.463	13.444	25.493	-193.602	36.667	57.578	-216.015	-3.36819	32.3033	-181.668	0.927306	37.2993	-193.598	25.7378	68.5507	-206.209	-18.5296	50.6503	-175.391	-3.47105	55.6388	-191.283	18.5307	83.0141	-199.043	-28.4154	70.7787	-173.405	-7.68074	75.0145	-188.916	13.6392	93.1248	-247.226	2.46915	94.4395	-250.17	19.5695	127.08	-249.723	36.9496	92.0334	
106	0.883333	-220.425	65.438	83.4203	-194.641	57.5314	55.503	-180.308	31.1788	31.8201	-175.857	0.767972	28.2324	-224.42	16.8221	20.0658	-193.965	20.8779	19.7242	-198.004	39.3383	51.0156	-215.582	-4.50274	28.6709	-184.832	7.15187	32.3647	-197.528	27.3592	66.9489	-204.47	-15.2438	46.1451	-175.67	-1.42137	49.8759	-187.005	19.8502	76.9047	-193.985	-21.6699	62.3671	-169.993	-1.56555	69.8386	-189.105	17.1454	94.3982	-242.15	-3.87882	94.6007	-245.275	15.4736	128.673	-252.913	38.4955	93.9608	
107	0.891667	-226.688	63.5449	85.4069	-205.776	54.9462	50.8872	-190.199	36.6911	28.5748	-182.273	7.8367	21.0304	-236.071	17.8471	21.3956	-203.678	22.7978	15.8123	-205.613	39.8013	48.6452	-220.301	-3.87297	27.6181	-190.515	12.9974	28.6204	-199.719	28.9204	60.9807	-203.966	-14.0425	42.9619	-177.42	1.94564	44.1563	-191.374	25.8921	71.0233	-194.445	-20.0493	59.0804	-174.561	4.49932	61.6554	-191.215	20.0656	85.8981	-240.251	-7.08548	96.8298	-241.521	12.5445	129.344	-257.59	32.5404	96.0938	
108	0.9	-234.035	62.3584	85.1671	-215.665	54.5841	51.7433	-201.321	38.6698	23.2754	-190.723	13.0862	17.2825	-245.033	15.708	22.0544	-214.326	24.2809	13.7077	-216.739	44.3531	46.4866	-229.445	-3.15684	25.317	-199.027	15.2961	25.6271	-209.63	32.3291	58.33	-206.813	-13.1771	38.079	-184.392	5.43833	38.2616	-197.081	25.9983	68.0384	-195.963	-18.0743	55.9928	-177.597	10.0152	58.5216	-194.292	23.2047	80.5313	-241.391	-7.15603	97.0669	-241.001	9.21003	128.42	-257.337	27.7411	97.9345	
